<?xml version="1.0" encoding="utf-8"?>
<!-- Generator: Adobe Illustrator 23.0.0, SVG Export Plug-In . SVG Version: 6.00 Build 0)  -->
<svg version="1.2" baseProfile="tiny" id="Capa_1" xmlns="http://www.w3.org/2000/svg" xmlns:xlink="http://www.w3.org/1999/xlink"
	 x="0px" y="0px" viewBox="0 0 21.4 16.9" xml:space="preserve">
<g id="Grupo_1754" transform="translate(-285.761 -134.215)">
	<path id="Unión_24" fill="#00CDFF" d="M294.5,135.6c0.6,0.5,0.6,1.4,0.1,1.9c0,0-0.1,0.1-0.1,0.1l-3.1,3.3h13.8
		c0.9,0,1.5,0.7,1.5,1.5c0,0.9-0.7,1.5-1.5,1.5H291l3.5,3.7c0.6,0.5,0.6,1.4,0.1,1.9c0,0-0.1,0.1-0.1,0.1c-0.6,0.5-1.5,0.5-2.1,0
		c-0.5-0.5-5.8-6-5.8-6c-0.6-0.5-0.6-1.4,0-2c0,0,0,0,0,0c0,0,5.2-5.5,5.8-6c0.3-0.3,0.7-0.4,1-0.4
		C293.9,135.2,294.2,135.4,294.5,135.6z"/>
</g>
</svg>
