<?xml version="1.0" encoding="utf-8"?>
<!-- Generator: Adobe Illustrator 23.0.0, SVG Export Plug-In . SVG Version: 6.00 Build 0)  -->
<svg version="1.1" id="Capa_1" xmlns="http://www.w3.org/2000/svg" xmlns:xlink="http://www.w3.org/1999/xlink" x="0px" y="0px"
	 viewBox="0 0 18.4 14.1" style="enable-background:new 0 0 18.4 14.1;" xml:space="preserve">
<style type="text/css">
	.st0{fill:#99ABBF;}
</style>
<path id="Trazado_2109" class="st0" d="M9.2,0c2.4,0,4.9,0,7.3,0c0.9-0.1,1.7,0.5,1.9,1.4c0,0.2,0,0.3,0,0.5c0,3.4,0,6.9,0,10.3
	c0.1,0.9-0.5,1.7-1.4,1.9c-0.1,0-0.3,0-0.4,0c-4.9,0-9.8,0-14.7,0C1,14.2,0.1,13.6,0,12.7c0-0.2,0-0.3,0-0.5C0,8.8,0,5.3,0,1.8
	C0,0.6,0.6,0,1.9,0C4.3,0,6.7,0,9.2,0z M0.9,1.3c0.2,0.2,0.3,0.3,0.3,0.4c2.1,2.1,4.2,4.1,6.3,6.2c0.8,0.9,2.2,1,3.1,0.2
	c0.1-0.1,0.1-0.1,0.2-0.2c2-2,4.1-4.1,6.1-6.1c0.1-0.1,0.2-0.3,0.3-0.5C17,1.1,16.8,1.1,16.6,1c-5,0-10,0-15,0
	C1.4,1.1,1.1,1.2,0.9,1.3L0.9,1.3z M0.9,12.7c0.3,0.1,0.5,0.2,0.8,0.2c1.6,0,3.3,0,4.9,0c3.3,0,6.6,0,9.9,0c0.3,0,0.5-0.1,0.7-0.3
	c-0.1-0.2-0.2-0.4-0.4-0.6c-1.3-1.4-2.7-2.7-4.1-4.1c-0.1-0.1-0.3-0.2-0.4-0.4c-0.9,1-1.8,2-3.3,2s-2.3-1-3.2-1.9L0.9,12.7z M17.3,3
	l-3.9,3.9l3.9,4V3z M1,11l4-4l-4-4V11z"/>
</svg>
