<svg xmlns="http://www.w3.org/2000/svg" width="22.543" height="15.78" viewBox="0 0 22.543 15.78">
  <path id="cloud-upload-alt-solid" d="M18.936,38.854a3.385,3.385,0,0,0-3.156-4.6,3.364,3.364,0,0,0-1.877.571A5.636,5.636,0,0,0,3.381,37.636c0,.1,0,.19.007.285A5.073,5.073,0,0,0,5.072,47.78H18.034a4.508,4.508,0,0,0,.9-8.925Zm-5.079,2.163h-2.3v3.945a.565.565,0,0,1-.564.564H9.3a.565.565,0,0,1-.564-.564V41.017h-2.3a.563.563,0,0,1-.4-.962l3.712-3.712a.566.566,0,0,1,.8,0l3.712,3.712a.563.563,0,0,1-.4.962Z" transform="translate(0 -32)" fill="#6228e4"/>
</svg>
